<svg width="16" height="16" viewBox="0 0 16 16" fill="none" xmlns="http://www.w3.org/2000/svg">
<mask id="path-1-outside-1" maskUnits="userSpaceOnUse" x="1" y="2" width="14" height="13" fill="black">
<rect fill="white" x="1" y="2" width="14" height="13"/>
<path fill-rule="evenodd" clip-rule="evenodd" d="M3 3C2.44772 3 2 3.44772 2 4V7V10V14L5 11H13C13.5523 11 14 10.5523 14 10V4C14 3.44772 13.5523 3 13 3H3Z"/>
</mask>
<path d="M2 14H1C1 14.4045 1.24364 14.7691 1.61732 14.9239C1.99099 15.0787 2.42111 14.9931 2.70711 14.7071L2 14ZM5 11V10C4.73478 10 4.48043 10.1054 4.29289 10.2929L5 11ZM3 4V2C1.89543 2 1 2.89543 1 4H3ZM3 7V4H1V7H3ZM3 10V7H1V10H3ZM3 14V10H1V14H3ZM4.29289 10.2929L1.29289 13.2929L2.70711 14.7071L5.70711 11.7071L4.29289 10.2929ZM13 10H5V12H13V10ZM13 10V10V12C14.1046 12 15 11.1046 15 10H13ZM13 4V10H15V4H13ZM13 4H13H15C15 2.89543 14.1046 2 13 2V4ZM3 4H13V2H3V4Z" fill="#C4C4C4" mask="url(#path-1-outside-1)"/>
</svg>