<?xml version="1.0" encoding="utf-8"?>
<!-- Generator: Adobe Illustrator 27.0.0, SVG Export Plug-In . SVG Version: 6.00 Build 0)  -->
<svg version="1.1" id="Layer_1" xmlns="http://www.w3.org/2000/svg" xmlns:xlink="http://www.w3.org/1999/xlink" x="0px" y="0px"
	 viewBox="0 0 285.7 152.2" style="enable-background:new 0 0 285.7 152.2;" xml:space="preserve">
<style type="text/css">
	.st0{fill:#FFFFFF;}
	.st1{fill:#909090;}
</style>
<path class="st0" d="M104.1,8.3h-5.2V11h5.2v14.1h3.2V0.3h-3.2V8.3z"/>
<path class="st0" d="M95.9,6.6V2.4h-3.2v4.2c0,4.7-2.5,9.2-6,10.9l-0.2,0.1l2,2.5l0.2-0.1c2.5-1.3,4.6-3.9,5.7-7.2
	c1.1,3.2,3.1,5.6,5.7,6.8l0.2,0.1l1.9-2.6l-0.2-0.1C98.3,15.4,95.9,11.2,95.9,6.6 M110.6,13h9.6v1.5h-7V17h13.9v1.3h-13.9v6.5H131
	v-2.5h-14.5v-1.6h13.8v-6.2h-6.9V13h9.6v-2.6h-22.4L110.6,13z M121.8,3.1c3.6,0,5.6,0.7,5.6,1.9s-2,1.9-5.6,1.9
	c-3.6,0-5.6-0.7-5.6-1.9C116.3,3.8,118.3,3.1,121.8,3.1 M121.8,9.4c5.6,0,8.9-1.6,8.9-4.4s-3.2-4.4-8.9-4.4c-5.6,0-8.9,1.6-8.9,4.4
	S116.2,9.4,121.8,9.4 M151.8,25.1h3.2V0.4h-3.2L151.8,25.1z M144,6.6V2.4h-3.2v4.2c0,4.7-2.6,9.2-6.3,10.9l-0.2,0.1l1.9,2.7l0.2-0.1
	c2.7-1.3,4.9-3.9,6.1-7.4c1.2,3.1,3.3,5.6,5.9,6.8l0.2,0.1l1.9-2.5l-0.2-0.1C146.5,15.4,144,11.1,144,6.6 M174,13l-0.4-2.7l-0.2,0
	c-3.5,0.6-6.5,0.7-10.5,0.7V8.8h8.3V1.5h-11.5v2.7h8.4v2.1h-8.3v7.5h2.3c4.7,0,8-0.1,11.8-0.7L174,13z M175.8,14.2h3.2V0.4h-3.2
	V14.2z M175.8,22.1h-10V20h10V22.1z M175.8,17.4h-10v-2.5h-3.2v9.8H179v-9.8h-3.2V17.4z M199.7,25.1h3.2V0.4h-3.2V25.1z M186.9,5.3
	h5.6v11.2h-5.6V5.3z M183.8,19.1h11.8V2.7h-11.8V19.1z M208.7,9.3c4-0.5,7.2-2.1,8.9-4.4c1.6,2.3,4.9,3.9,8.9,4.4l0.2,0l1.1-2.5
	l-0.3,0c-4.7-0.5-8.2-2.8-8.2-5.4V0.5H216v0.9c0,2.6-3.5,4.9-8.2,5.4l-0.3,0l1.1,2.5L208.7,9.3z M206.4,12.9h9.6v1.6h-7V17h13.9v1.4
	h-13.9v6.5h17.7v-2.5h-14.5v-1.6h13.8v-6.3h-6.9v-1.6h9.6v-2.6h-22.4L206.4,12.9z M240.5,10.7l0,0.2l3.1,0.3l0-0.2
	c0.6-3.2,0.6-5.6,0.6-7.2V2.2h-12.6v2.7h9.5C241.1,6.8,240.9,8.8,240.5,10.7"/>
<path class="st0" d="M245.8,14.4l-0.2-2.4l-0.2,0c-2.4,0.4-5,0.5-7.3,0.6V7.8H235v5c-1.6,0-3.2,0-4.6,0h-0.2l0.3,2.7h0.2
	c3.9,0,9.8-0.1,15-1L245.8,14.4z M249.9,8.1V0.4h-3.2V19h3.2v-8.3h3.2V8.1H249.9z M237,17h-3.2v7.6h16.9V22H237L237,17z"/>
<g>
	<path class="st1" d="M101.3,54.6c-2.1,1.8-5,1.8-5.8,1.8c-1.1,0-4.4-0.1-6.9-2.6c-0.3-0.4-0.6-0.7-0.9-1.2l2.8-1.9
		c0.8,1.2,2.2,2.7,5.5,2.7c0.2,0,0.8,0,1.3-0.1c0.4-0.1,2.1-0.6,2.1-2.2c0-0.4-0.1-0.7-0.3-1.1c-0.6-0.8-2.2-1-3.1-1.2l-2.1-0.5
		c-0.9-0.2-1.9-0.4-2.7-0.8c-0.8-0.4-2.5-1.5-2.5-4.1c0-0.4,0-1.6,0.7-2.6c0.8-1.4,2.7-2.9,6.3-2.9c1.6,0,4.7,0.2,7.1,3.6l-2.7,2
		c-0.6-0.9-1.8-2.6-4.6-2.6c-0.2,0-2.4,0-3.1,1.4c-0.3,0.5-0.3,1.1,0,1.6c0.4,0.7,1.4,1,3,1.3l1.8,0.4c1.7,0.4,3.5,0.9,4.7,2.3
		c0.5,0.6,1,1.4,1,3C103,52.3,102.5,53.5,101.3,54.6 M105.9,56V38.3h12.6v3h-9.3v4.2h8.6v2.9h-8.6V53h10v3H105.9z M133.4,43.2
		c-0.9-1.5-2.3-2.3-4.1-2.3c-1.1,0-1.9,0.4-2.3,0.5c-1.3,0.7-2.8,2.3-2.8,5.6c0,0.7,0,3.9,2.5,5.6c1.1,0.7,2.2,0.8,2.6,0.8
		c0.4,0,1.2,0,2-0.4c1.3-0.6,3-2.1,3.1-5.4C134.5,46,134.3,44.5,133.4,43.2 M135.4,53.9c-0.8,0.9-1.9,1.6-3,2c-1,0.3-2,0.5-3.1,0.5
		c-2.5,0-4.4-0.8-6.1-2.7c-1.7-1.9-2.4-4.1-2.4-6.5c0-0.6,0-1.9,0.5-3.4c1.2-3.5,4.2-5.9,8-5.9c3.4,0,5.4,1.9,6.3,2.8
		c0.9,1.1,2.2,3.1,2.2,6.5C137.8,48.2,137.7,51.4,135.4,53.9 M155,52.4c-0.6,1.8-2.6,4.1-6.9,4.1c-2.1,0-4.2-0.5-5.6-2.1
		c-0.2-0.2-0.8-1-1.1-1.9c-0.3-0.9-0.3-1.7-0.3-3.6V38.3h3.3v10.9c0,1.1,0,1.4,0.2,2c0.3,1.1,1.3,2.1,3.6,2.1c0.4,0,2.9,0,3.6-2
		c0.2-0.6,0.2-1.1,0.2-2.2V38.3h3.3v10.2C155.3,50.5,155.3,51.4,155,52.4 M159.4,56V38.3h3.3V53h7v3L159.4,56z M192.9,56l0.3-14.6
		L189.4,56h-3l-3.8-14.6l0.3,14.6h-3.2V38.3h4.8l3.5,13.1l3.4-13.1h4.8V56L192.9,56z M214.2,52.4c-0.6,1.8-2.6,4.1-7,4.1
		c-2.1,0-4.2-0.5-5.6-2.1c-0.5-0.5-0.9-1.2-1.1-1.9c-0.3-0.9-0.3-1.7-0.3-3.6V38.3h3.3v10.9c0,1.1,0,1.4,0.2,2
		c0.3,1.1,1.3,2.1,3.6,2.1c0.4,0,2.9,0,3.6-2c0.2-0.6,0.2-1.1,0.2-2.2V38.3h3.3v10.2C214.5,50.5,214.5,51.4,214.2,52.4 M230.6,54.6
		c-2.1,1.8-5,1.8-5.8,1.8c-1.1,0-4.4-0.1-6.9-2.6c-0.3-0.4-0.6-0.7-0.9-1.2l2.8-1.9c0.8,1.2,2.2,2.7,5.5,2.7c0.2,0,0.8,0,1.3-0.1
		c0.4-0.1,2.1-0.6,2.1-2.2c0-0.4-0.1-0.7-0.3-1.1c-0.6-0.8-2.2-1-3.1-1.2l-2.1-0.5c-0.9-0.2-1.9-0.4-2.7-0.8
		c-0.8-0.4-2.5-1.5-2.5-4.1c0-0.4,0-1.6,0.7-2.6c0.8-1.4,2.7-2.9,6.3-2.9c1.6,0,4.7,0.2,7.2,3.6l-2.7,2c-0.6-0.9-1.8-2.6-4.6-2.6
		c-0.2,0-2.4,0-3.1,1.4c-0.1,0.2-0.2,0.5-0.2,0.8c0,0.3,0.1,0.6,0.2,0.8c0.4,0.7,1.4,1,3,1.3l1.8,0.4c1.7,0.4,3.5,0.9,4.7,2.3
		c0.5,0.6,1,1.4,1,3C232.4,52.3,231.9,53.5,230.6,54.6 M235.2,56V38.3h12.6v3h-9.3v4.2h8.6v2.9h-8.6V53h10v3H235.2z M265,52.4
		c-0.6,1.8-2.6,4.1-6.9,4.1c-2.1,0-4.2-0.5-5.6-2.1c-0.2-0.2-0.8-1-1.1-1.9c-0.3-0.9-0.3-1.7-0.3-3.6V38.3h3.3v10.9
		c0,1.1,0,1.4,0.2,2c0.3,1.1,1.3,2.1,3.6,2.1c0.4,0,2.9,0,3.6-2c0.2-0.6,0.2-1.1,0.2-2.2V38.3h3.3v10.2
		C265.3,50.5,265.3,51.4,265,52.4 M282.5,56l0.3-14.6L279,56h-3l-3.8-14.6l0.3,14.6h-3.2V38.3h4.8l3.5,13.1l3.4-13.1h4.8V56
		L282.5,56z M100.9,68.1c-0.9-1.5-2.3-2.3-4.1-2.3c-1.1,0-1.9,0.4-2.3,0.5c-1.3,0.7-2.8,2.3-2.8,5.6c0,0.7,0,3.9,2.5,5.6
		c1.1,0.7,2.2,0.8,2.6,0.8c0.4,0,1.2,0,2-0.4c1.3-0.6,3-2.1,3.1-5.4C102,70.9,101.7,69.4,100.9,68.1 M102.9,78.8
		c-0.8,0.9-1.9,1.6-3,2c-1,0.3-2,0.5-3.1,0.5c-2.5,0-4.4-0.8-6.1-2.7c-1.7-1.9-2.4-4.1-2.4-6.5c0-0.6,0-1.9,0.5-3.4
		c1.2-3.5,4.2-5.9,8-5.9c3.4,0,5.4,1.9,6.3,2.8c0.9,1.1,2.2,3.1,2.2,6.5C105.3,73.1,105.2,76.3,102.9,78.8 M111.9,66.1v4.4h7.4v2.8
		h-7.4v7.5h-3.3V63.2h11.7v3L111.9,66.1z M136,66.3l-2.5,8.2h4.9L136,66.3z M140.4,80.9l-1-3.5h-6.6l-1,3.5h-3.6l6-17.7h3.8l6,17.7
		H140.4z M154.9,66.5c-0.6-0.4-1.3-0.5-2.7-0.5h-2.7v5.5h1.2c1.9,0,3.1,0,3.9-0.4c0.9-0.5,1.4-1.4,1.3-2.4
		C156,67.9,155.6,67,154.9,66.5 M156,80.9l-3.5-6.6h-3v6.6h-3.3V63.2h7.3c0.8,0,3.2,0.1,4.8,2.2c1,1.4,1.1,2.9,1.1,3.5
		c0,0.3,0,1.2-0.3,2c-0.6,1.4-1.7,2.5-3.2,2.9l3.9,7.2L156,80.9z M169.1,66.1v14.7h-3.3V66.1H161v-3h13v3H169.1z"/>
</g>
<path class="st0" d="M106.9,128.3v-7.7l-0.5-0.5l-0.4,0.1l0.4-0.1l0.4-0.6l-2.4-7.3l-0.7-0.3l0.2-0.7l-4.5-6.2c-0.3,0-0.4,0-0.7-0.1
	l-0.1-0.7l-3.1-2.3l-3.2-2.3l-0.7,0.1l-0.1-0.7l-5-3.6l-5-3.6l-0.7,0.1l-0.1-0.7l-5-3.6l-5-3.6l-0.7,0.1L70,83.6l-5-3.6l-5-3.6
	l-0.7,0.1l-0.1-0.7l-5-3.6l-5-3.6l-0.7,0.1l-0.1-0.7l-5-3.6l-5-3.6l-0.7,0.1L37.6,60l-5-3.6l-5-3.6l-0.7,0.1l-0.1-0.7l-5-3.6l-5-3.6
	L16.5,45L16.1,45L16,44.4L14.1,43l-2.5-1.8l-0.6,0l0.1-0.6l-2.6-3.6l-0.6-0.1l0.2-0.6l-1.4-4.3l-0.5-0.3l0.4-0.5v-5.4l-0.5-0.5
	L6.7,25V14.4l-0.5-0.5l0.5-0.5v-3.3L6.3,9.7l0.3-0.1l0.3-0.1l0.8-1.4L7.6,7.6l0.6,0.1l1.4-0.8l0.2-0.5c0.2,0.1,0.3,0.2,0.5,0.3h3.3
	l0.5-0.5l0.5,0.5h12.4c0.2-0.2,0.3-0.3,0.5-0.5l0.5,0.5h12.4c0.2-0.2,0.3-0.3,0.5-0.5l0.5,0.5h12.4c0.2-0.2,0.3-0.3,0.5-0.5l0.5,0.5
	h12.4l0.5-0.5V0.5L66.8,0H54.4l-0.5,0.5L53.4,0H41.1l-0.5,0.5L40.1,0H27.7l-0.5,0.5L26.8,0H14.4l-0.5,0.5L13.4,0H8.6L8.2,0.6
	L7.5,0.3l-4,2.3L3.4,3.4L2.6,3.5l-2.3,4l0.3,0.7L0,8.6v4.8l0.5,0.5L0,14.4V25l0.5,0.5c-0.2,0.2-0.3,0.3-0.5,0.5v6.3l0.5,0.5
	l-0.4,0.6l1.9,6l0.7,0.3h0l-0.2,0.7l3.6,5L7,45.4L7,46.1l2.5,1.8l2.6,1.9l0.7-0.1l0.1,0.7l5,3.6l5,3.6l0.7-0.1l0.1,0.7l5,3.6l5,3.6
	l0.7-0.1l0.1,0.7l5,3.6l5,3.6l0.7-0.1l0.1,0.7l5,3.6l5,3.6l0.7-0.1l0.1,0.7l5,3.6l5,3.6l0.7-0.1l0.1,0.7l5,3.6l5,3.6l0.7-0.1
	l0.1,0.7l5,3.6l5,3.6l0.4-0.1l0.3,0l0.1,0.7l1.9,1.4l1.2,0.9l2.4,1.7l0.6,0l0,0.6l3.4,4.7l0.6,0.1l-0.2,0.6l1.8,5.6l0.5,0.3
	l-0.4,0.5v5.9l0.4,0.5l-0.5,0.3l-1.8,5.6l0.2,0.6l-0.6,0.1l-3.4,4.7l0,0.6l-0.6,0l-4.7,3.4l-0.1,0.6l-0.6-0.2l-5.6,1.8
	c-0.1,0.2-0.2,0.3-0.3,0.5l-0.5-0.4h-5.9l-0.5,0.4l-0.3-0.5l-5.6-1.8l-0.6,0.2l-0.1-0.6l-2.4-1.7l-3.2-2.3l-0.7,0.1l-0.1-0.7l-5-3.6
	l-5-3.6l-0.7,0.1l-0.1-0.7l-5-3.6l-5-3.6l-0.7,0.1l-0.1-0.7l-5-3.6l-5-3.6l-0.7,0.1l-3.4,4.6l0.1,0.7l5,3.6l5,3.6l0.7-0.1l0.1,0.7
	l5,3.6l5,3.6l0.7-0.1l0.1,0.7l5,3.6l5,3.6l0.7-0.1l0.1,0.7l3.2,2.3l3.1,2.3l0.7-0.2l0.3,0.7l7.3,2.4l0.6-0.4l0.5,0.5H83l0.5-0.5
	l0.6,0.4l7.3-2.4l0.3-0.7l0.7,0.2l6.2-4.5l0.1-0.7l0.7-0.1l4.5-6.2l-0.2-0.7l0,0l0,0l0.7-0.3l2.4-7.3l-0.4-0.6L106.9,128.3z"/>
</svg>
