<svg width="105" height="27" viewBox="0 0 105 27" fill="none" xmlns="http://www.w3.org/2000/svg">
<path d="M15.5876 3.49923C15.6377 3.57724 15.7046 3.6441 15.7102 3.72211C15.7826 3.95057 15.9943 4.08987 16.0222 4.31832C16.0334 4.39633 16.1336 4.42976 16.1838 4.4632C16.2395 4.53563 16.2005 4.61921 16.312 4.72508C16.3621 4.75851 16.3231 4.84209 16.3342 4.9201C16.3844 4.95354 16.4401 4.98697 16.4903 5.0204C16.9639 5.76148 17.0085 6.61958 16.4624 7.41638C16.3732 7.50554 16.2897 7.62812 16.2562 7.75071C16.2117 7.79528 16.1169 7.83986 16.0724 7.88443C16.0835 7.96244 16.1336 7.99588 16.1894 8.06831C15.9498 8.1296 15.9219 8.3302 15.7436 8.46393C15.6935 8.4695 15.5987 8.47507 15.5486 8.48064C15.4149 8.61437 15.2756 8.66452 15.1363 8.75367C15.0917 8.79825 15.1028 8.91526 15.1084 8.95427C14.8799 9.13257 14.5512 9.24402 14.2057 9.23287C14.1611 9.23844 14.1221 9.36103 14.0776 9.36103C13.8324 9.38332 13.5426 9.37217 13.2975 9.39446C13.1972 9.3666 13.1415 9.29416 13.0356 9.26073C12.9409 9.27188 12.8406 9.27745 12.7403 9.24959C12.5843 9.14372 12.3837 9.127 12.2276 9.06014C12.1273 9.03228 11.9435 9.127 11.8376 9.06014C11.5144 8.77596 11.1857 8.49179 11.0074 8.19647C10.8903 8.01259 10.6842 7.9513 10.6173 7.76185C10.6062 7.68384 10.6452 7.56126 10.5449 7.5334C10.3443 7.4721 10.4279 7.34952 10.4167 7.2325C10.3554 7.12106 10.3443 7.04305 10.2384 6.93719C10.1771 6.82574 10.2551 6.65858 10.1938 6.50814C10.1883 6.46913 10.2328 6.42456 10.2273 6.38555C10.1548 6.1571 10.2719 5.91193 10.2496 5.71691C10.2384 5.59989 10.2663 5.4383 10.3053 5.32129C10.4279 5.07612 10.5393 4.78637 10.7566 4.53006C10.751 4.49106 10.7455 4.41305 10.7399 4.37404C10.7845 4.32947 10.8346 4.32389 10.8736 4.27932C10.9516 4.07872 11.0296 3.91156 11.1578 3.7444C11.3305 3.53266 11.6036 3.34878 11.8265 3.13147C11.9602 3.00332 12.1441 2.90302 12.2666 2.69685C12.3112 2.65228 12.4672 2.71914 12.5118 2.67457C12.6455 2.54641 12.8406 2.56313 12.9799 2.47397C13.1192 2.38482 13.0913 2.57984 13.2306 2.52969C13.3253 2.51855 13.3699 2.47954 13.4646 2.4294C13.6039 2.37925 13.7655 2.47954 13.916 2.50183C14.0608 2.49069 14.2113 2.51298 14.3673 2.61885C14.579 2.75815 15.0638 2.708 15.1418 2.98103C15.2588 3.17605 15.4706 3.31535 15.5876 3.49923Z" fill="black"/>
<path d="M23.79 6.57502C23.7844 6.45243 23.79 6.38 23.7398 6.25184C23.7287 6.12926 23.8234 5.99553 23.7788 5.82837C23.751 5.78379 23.6897 5.73364 23.6952 5.69464C23.7788 5.43832 23.7844 5.2043 23.7621 4.92569C23.7398 4.84211 23.7119 4.79754 23.6841 4.75296C23.6897 4.71395 23.7064 4.64152 23.7175 4.56351C23.7231 4.32948 23.6507 4.15675 23.5782 3.94501C23.5559 3.86143 23.4946 3.81128 23.4835 3.6887C23.4556 3.64412 23.3943 3.5884 23.3999 3.5494C23.4612 3.2095 23.2996 2.94204 23.2495 2.61886C23.1715 2.25111 22.826 2.01708 22.7146 1.64376C22.7313 1.61032 22.8427 1.62704 22.8761 1.63261C23.1492 1.88893 23.4556 2.18982 23.5281 2.55757C23.5782 2.68573 23.5559 2.79717 23.6117 2.88632C23.8457 3.17607 23.8903 3.53825 23.9293 3.89486C23.9237 3.93387 23.9961 3.91158 24.024 3.95616C24.0184 3.99516 24.0017 4.0676 24.0296 4.11217C24.2079 4.3072 24.0964 4.51893 24.1354 4.71953C24.1577 4.80311 24.18 4.84768 24.2079 4.89226C24.2023 4.93126 24.1131 5.03156 24.102 5.06499C24.2469 5.25444 24.3082 5.49961 24.2692 5.72807C24.4363 5.80608 24.3583 6.02339 24.3973 6.18498C24.4252 6.22955 24.4586 6.23512 24.492 6.24627C24.5366 6.1794 24.5868 6.11254 24.6035 6.03453C24.6258 5.72807 24.6369 5.45504 24.5812 5.17086C24.5366 5.04271 24.5199 4.92012 24.609 4.8254C24.5422 4.80868 24.5199 4.7251 24.492 4.68052C24.3695 4.18461 24.3193 3.62741 24.1689 3.12035C24.1689 3.12035 24.2079 3.09249 24.219 3.05348C24.1689 2.60772 23.829 2.18982 23.6674 1.74405C23.6395 1.66604 23.5114 1.56575 23.4501 1.48217C23.4501 1.48217 23.4556 1.44316 23.4612 1.40416C23.6339 1.42644 23.7677 1.59361 23.8568 1.72176C24.0407 1.97808 24.2469 2.26225 24.3026 2.552C24.3973 2.80831 24.5422 3.07577 24.5979 3.32651C24.6369 3.49368 24.7539 3.59954 24.8375 3.73885C24.8821 3.867 24.8598 3.97844 24.8709 4.10103C24.9211 4.39078 25.0047 4.66381 25.0604 4.95355C25.1273 5.16529 25.1607 5.40489 25.0882 5.5832C24.9935 5.91195 25.2108 6.27413 25.3 6.56945C25.3501 6.69761 25.2888 6.84248 25.2331 6.94835C25.2275 6.98735 25.2888 7.0375 25.2777 7.0765C25.2164 7.22138 25.2666 7.34954 25.2387 7.49998C25.1997 7.52784 25.2888 7.62814 25.2387 7.695C25.1997 7.72843 25.1663 7.71729 25.1217 7.75072C25.066 7.85659 25.1161 7.98475 25.0938 8.09619C24.9824 8.30793 25.0381 8.5921 24.8319 8.74255C24.7539 8.76484 24.7484 8.80384 24.7093 8.8317C24.7428 8.83727 24.7706 8.88185 24.7985 8.932C24.7595 8.95986 24.7205 8.95429 24.6815 8.98215C24.6703 9.05458 24.8152 9.14931 24.8431 9.19388C24.7874 9.49477 24.5645 9.75666 24.57 10.1133C24.5533 10.1857 24.5366 10.3027 24.5199 10.3752C24.453 10.5535 24.3193 10.6816 24.2524 10.8655C24.2413 10.9379 24.0964 10.9491 24.0797 11.0215C23.9906 11.1162 23.9961 11.2778 23.9348 11.4227C23.8847 11.4896 23.7844 11.4673 23.7008 11.5286C23.6061 11.6623 23.6172 11.7849 23.5559 11.9242C23.4501 12.0969 23.3275 12.2864 23.2272 12.4591C23.1102 12.7098 22.9151 12.9439 22.7034 13.1333C22.67 13.1278 22.592 13.15 22.553 13.1779C22.4415 13.3896 22.3189 13.5457 22.0849 13.6515C22.0515 13.646 22.0013 13.8075 21.9568 13.8354C21.7952 13.9524 21.706 14.0917 21.511 14.2032C21.4386 14.2254 21.3995 14.2533 21.316 14.1196C21.0597 14.5709 20.7198 14.922 20.352 15.234C20.157 15.3454 19.962 15.3343 19.8338 15.4624C19.4103 15.8748 18.7417 16.315 18.6692 16.3763C18.6358 16.3707 18.5077 16.5601 18.5077 16.5601C18.3739 16.5713 18.4519 16.5824 18.3238 16.5546C18.3238 16.5546 18.3182 16.7663 18.1455 16.7997C17.7833 16.8722 17.6886 17.2901 17.6607 17.4628C17.644 17.552 17.5883 17.4907 17.5437 17.5241C17.5047 17.5575 17.5325 17.6133 17.488 17.6467C17.332 17.7414 17.1926 17.9364 17.0645 18.0869C17.0255 18.1203 16.9976 18.0702 16.9531 18.1036C16.914 18.137 16.719 18.3766 16.6522 18.5884C16.485 18.9561 16.3067 19.2849 16.0782 19.5412C16.0225 19.6025 16.2064 19.8476 16.1953 19.9312C16.1451 20.0482 16.0392 20.065 15.9891 20.182C15.9445 20.4661 15.9278 20.7893 15.8776 21.0958C15.7941 21.3911 15.8999 21.6028 15.9389 21.8703C15.9835 22.0932 15.9278 22.3829 15.9389 22.6002C15.9557 22.773 16.0727 22.968 16.056 23.1352C16.0615 23.397 16.0002 23.3636 16.0615 23.5809C16.056 23.7091 16.0114 23.8372 16.0392 23.9208C16.0281 24.0935 16.0002 24.1994 15.9947 24.3666C15.9557 24.4056 15.8832 24.4892 15.8832 24.5337C15.8554 24.9628 15.5768 25.3361 15.287 25.6203C15.1031 25.7373 14.9471 25.9156 14.7409 25.8989C14.6351 25.8933 14.2896 26.1106 14.1726 26.1385C13.8661 26.2221 13.621 26.2276 13.3256 26.1831C13.0025 26.0939 12.7406 26.0159 12.5177 25.6816C12.384 25.5311 12.1555 25.5869 12.0719 25.3584C12.0441 25.2692 11.8602 25.2191 11.8268 25.1745C11.654 25.0241 11.5649 24.8346 11.4367 24.6452C11.3531 24.4167 11.4144 24.2607 11.3086 24.0434C11.2027 23.9097 11.1581 23.8149 11.0523 23.6756C10.9129 23.4973 11.0857 23.241 10.9798 23.0627C10.9074 23.0126 10.8349 22.9234 10.8015 22.8343C10.7346 22.6615 10.7514 22.4052 10.6455 22.2213C10.5898 21.9985 10.6232 21.1905 10.6678 20.9732C10.6734 20.9286 10.5508 20.8673 10.5563 20.8228C10.5731 20.5107 10.6845 20.2043 10.6566 19.8811C10.6901 19.7083 10.6733 19.569 10.8294 19.4186C10.8294 19.4186 10.7569 19.3573 10.7625 19.3127C10.8517 19.062 10.8517 18.867 10.9018 18.6051C10.9074 18.5605 11.0021 18.5326 11.0077 18.4936C10.9575 18.3042 10.952 17.9141 10.9854 17.7414C11.0021 17.6523 11.225 17.5241 11.2807 17.4461C11.2863 17.4015 11.2473 17.2901 11.3309 17.1396C11.3531 17.1006 11.4089 17.1118 11.4534 17.0783C11.459 17.0338 11.4311 16.9836 11.4423 16.939C11.4646 16.8109 11.6819 16.7162 11.6986 16.627C11.7878 16.3317 11.9326 16.2091 12.0887 15.9695C12.1444 15.8636 12.1667 15.7522 12.2558 15.6519C12.2948 15.624 12.3171 15.6519 12.3227 15.6129C12.3282 15.5739 12.3115 15.4903 12.3171 15.4569C12.4063 15.3566 12.5233 15.2674 12.5456 15.156C12.6069 15.0111 12.657 14.9108 12.7462 14.8105C12.9077 14.6879 13.0693 14.5709 13.1696 14.3982C13.2588 14.2979 13.3591 14.3202 13.4427 14.2254C13.5708 14.0973 13.6042 13.9078 13.699 13.7741C13.9219 13.5122 14.1615 13.3283 14.4011 13.15C14.6016 12.9996 14.858 12.9383 15.053 12.8269C15.2536 12.6764 15.3762 12.3922 15.5712 12.2808C15.6882 12.1916 15.8331 12.1805 15.9557 12.0914C16.0782 12.0022 16.1785 11.8295 16.3568 11.7905C16.758 11.6846 16.4683 11.796 16.8472 11.6456C17.0812 11.5007 16.9865 11.4617 17.2205 11.3224C17.6106 11.094 17.8111 10.9491 17.8446 10.9602C17.8836 10.9324 17.9226 10.8989 17.9393 10.8265C18.034 10.6928 18.5299 10.3417 18.6024 10.3194C18.6748 10.2972 18.764 10.3919 18.8475 10.2971C18.8921 10.2303 18.803 10.169 18.8475 10.1021C18.9757 9.97397 19.0983 9.80124 19.2209 9.71208C19.2599 9.68422 19.3602 9.73995 19.4326 9.71766C19.4716 9.6898 19.4883 9.61179 19.5273 9.58393C19.5775 9.51706 19.4883 9.41677 19.5329 9.3499C19.5886 9.24403 19.6444 9.13816 19.7168 9.11588C19.8338 9.06573 19.9898 8.98215 19.9731 8.89857C20.001 8.74812 20.0623 8.60325 20.2183 8.51967C20.2238 8.48066 20.235 8.44166 20.2406 8.40822C20.3297 8.30793 20.4133 8.25221 20.5024 8.15191C20.5972 8.01818 20.5582 7.85102 20.6139 7.74515C20.7922 7.55013 20.9649 7.39411 21.0095 7.12665C20.9984 7.00407 20.9204 6.83133 20.9761 6.72547C21.0206 6.6586 21.1711 6.61402 21.1878 6.54159C21.2157 6.39114 21.1377 6.21841 21.1321 6.06239C21.1544 5.95095 21.277 5.85623 21.2602 5.73921C21.2491 5.42161 21.2658 5.11514 21.2212 4.79196C21.3271 4.77525 21.3438 4.70281 21.355 4.6248C21.3271 4.3852 21.1878 4.16232 21.1265 3.91158C21.1209 3.75556 21.2491 3.62741 21.2435 3.47139C21.2268 3.3488 21.1154 3.2095 20.9872 3.10363C20.8702 2.95876 20.9482 2.74145 20.9036 2.57986C20.8702 2.37927 20.7198 2.22325 20.6919 1.98365C20.6808 1.86106 20.5359 1.87221 20.4857 1.74405C20.4467 1.57689 20.4022 1.4153 20.4022 1.21471C20.3799 1.13113 20.274 1.14784 20.2127 1.09769C20.0734 0.86924 20.1235 0.412332 19.8227 0.306463C19.8505 0.156017 19.7112 0.122585 19.6666 0C19.8449 0 20.0121 0.0724366 20.1124 0.295319C20.1403 0.339895 20.2406 0.362183 20.274 0.373327C20.3631 0.468052 20.3576 0.702078 20.4523 0.763371C20.5749 0.86924 20.7588 0.830236 20.8089 0.958393C20.8758 1.17013 21.0374 1.28157 21.1098 1.45431C21.1042 1.49331 21.1209 1.57689 21.1488 1.62147C21.2714 1.72734 21.2881 1.84435 21.3717 1.94465C21.5779 2.18424 21.784 2.42941 21.6893 2.75817C21.628 2.90304 21.8119 2.86403 21.8676 2.95319C22.0069 3.18164 21.9512 3.48253 22.1295 3.67755C22.0961 4.06202 22.2799 4.41306 22.3969 4.75296C22.1964 5.05942 22.3078 5.59991 22.4638 5.91195C22.4638 5.91195 22.5753 5.89523 22.5808 5.8618C22.6143 5.67235 22.9542 5.61106 22.8984 5.5219C22.8316 5.31016 22.7257 4.86997 22.7257 4.67495C22.748 4.36292 22.7591 4.09546 22.709 3.77228C22.6811 3.7277 22.6533 3.68313 22.6254 3.63855C22.5864 3.47139 22.5418 3.30423 22.5753 3.12035C22.553 3.03677 22.4917 2.98662 22.4694 2.90304C22.475 2.86403 22.4917 2.7916 22.4972 2.75259C22.5753 2.7303 22.67 2.7916 22.7368 2.80831C22.7981 2.85846 22.7424 2.96433 22.7703 3.00891C22.8817 3.18721 23.0433 3.26522 23.0767 3.46582C23.0712 3.50482 23.0544 3.57726 23.0489 3.61626C23.1102 3.84471 23.255 4.03416 23.2885 4.23476C23.3052 4.35177 23.1993 4.52451 23.2495 4.65823C23.4055 4.9647 23.4111 5.32131 23.3888 5.66678C23.3609 5.81722 23.5504 5.93981 23.5002 6.0401C23.4445 6.14597 23.5169 6.16269 23.4612 6.26856C23.4556 6.30756 23.3776 6.32985 23.3721 6.36885C23.4724 6.58616 23.3219 6.91492 23.2829 7.10436C23.2773 7.14337 23.3999 7.18237 23.4278 7.04307C23.4445 6.95949 23.5838 6.95949 23.6618 6.9372C23.7342 6.87591 23.7955 6.73104 23.79 6.57502ZM24.5255 7.32725C24.531 7.1378 24.6202 6.9985 24.5868 6.79233C24.5199 6.58059 24.3639 6.79233 24.2524 6.80347C24.3137 7.05422 24.2134 7.22138 24.1354 7.44426C24.0908 7.51112 24.0518 7.70057 24.1633 7.68386C24.3416 7.72286 24.5199 7.56127 24.5255 7.32725ZM24.2357 8.35808C24.2803 8.29678 24.258 8.1742 24.1967 8.12405C24.102 8.06276 23.9794 8.15748 23.9237 8.25778C23.868 8.36365 23.9125 8.53081 24.0574 8.51967C24.0853 8.53081 24.1856 8.42494 24.2357 8.35808Z" fill="black"/>
<path d="M22.219 1.93906C22.4028 2.07836 22.4753 2.30681 22.6201 2.49626L22.6034 2.57427C22.3471 2.78601 22.1298 2.4294 22.0574 2.21766C21.9571 2.00035 21.8512 1.78304 21.6673 1.62145C21.6729 1.58244 21.684 1.54901 21.6896 1.51001C21.6005 1.40971 21.4835 1.27041 21.6005 1.21469C21.6506 1.14782 21.7342 1.28155 21.8289 1.34285C21.9682 1.5323 21.9961 1.77189 22.219 1.93906Z" fill="black"/>
<path d="M23.2551 0.975112C23.2551 1.01412 23.1938 1.08098 23.1882 1.11441C23.0712 1.00297 22.9486 0.891531 22.8483 0.707654C22.8149 0.696509 22.748 0.679793 22.7202 0.635217C22.6867 0.624073 22.6923 0.59064 22.7035 0.551636C22.8149 0.540492 22.8985 0.640789 22.9932 0.707654C23.0266 0.718798 23.0712 0.690937 23.1046 0.696509C23.1938 0.757802 23.2439 0.852527 23.2551 0.975112Z" fill="black"/>
<path d="M7.77582 7.89558C7.80925 7.92344 7.8594 7.96802 7.88168 8.00145C7.9374 8.04046 7.99313 8.04046 8.05442 8.01817C8.11014 8.02374 8.16029 8.16861 8.22158 8.17419C8.30516 8.21319 8.35531 8.35806 8.43889 8.4305C8.49461 8.46393 8.55033 8.51965 8.60605 8.55308C8.68406 8.65338 8.73421 8.75368 8.81779 8.82054C8.86794 8.88741 8.95709 8.86512 9.01838 8.86512C9.12982 8.90412 9.1744 9.06571 9.25241 9.16601C9.28027 9.16601 9.33042 9.26631 9.33042 9.29974C9.38614 9.33317 9.43629 9.40004 9.51987 9.43904C9.54216 9.47247 9.54216 9.53377 9.56444 9.5672C9.77061 9.90152 10.0436 10.1133 10.2164 10.4699C10.2164 10.4699 10.2387 10.5367 10.2387 10.5646C10.4504 10.7708 10.5451 11.0661 10.729 11.3001C10.7791 11.4004 10.8237 11.562 10.8739 11.6901C10.9296 11.757 10.9797 11.796 11.0355 11.8629C11.1135 11.9966 11.1859 12.1582 11.2026 12.3198C11.1971 12.3811 11.158 12.5705 11.0466 12.4647C10.9129 12.3254 10.924 12.1415 10.7903 12.0356C10.7903 12.0022 10.7569 11.9242 10.729 11.8907C10.6733 11.8239 10.5786 11.8295 10.5563 11.7347C10.5618 11.64 10.456 11.562 10.4058 11.5007C10.2721 11.3057 10.0715 11.2332 9.90991 11.0382C9.88205 11.0382 9.85419 11.0382 9.82076 11.0661C9.7929 11.1274 9.70374 11.2165 9.78175 11.3168C9.89319 11.3837 9.94891 11.5118 10.0882 11.5843C10.1718 11.6511 10.1941 11.8406 10.2442 12.0022C10.3 12.069 10.3557 12.1303 10.4393 12.1693C10.5228 12.2362 10.4894 12.3365 10.5674 12.4368C10.5674 12.4702 10.534 12.4981 10.534 12.526C10.5841 12.6263 10.7011 12.604 10.7791 12.7043C10.8404 12.6485 10.924 12.6931 10.9742 12.7823C10.8794 12.8714 10.9073 12.9327 10.8683 13.0274C10.7736 13.1779 10.9909 13.3228 11.1302 13.3952C11.2193 13.4008 11.2026 13.5568 11.2862 13.6292C11.3364 13.7295 11.4812 13.7407 11.5537 13.8744C11.576 13.9413 11.5202 13.9635 11.4868 14.0248C11.4812 14.1196 11.5927 14.1586 11.6484 14.1976C11.7041 14.2366 11.7264 14.2979 11.7487 14.3647C11.6595 14.387 11.4924 14.27 11.4032 14.2644C11.3475 14.2421 11.2472 14.1196 11.1358 14.0917C11.0968 14.0806 11.0689 14.1753 11.0299 14.1641C10.9797 14.153 10.924 14.1419 10.8683 14.1307C10.807 14.1196 10.6621 13.958 10.6008 13.9524C10.5284 13.9413 10.4393 14.0694 10.3724 14.0583C10.1161 14.0137 10.1049 13.997 10.0214 13.9635C9.92663 13.9245 9.8319 13.88 9.74832 13.8298C9.6926 13.802 9.70932 13.7239 9.6536 13.6905C9.60345 13.6571 9.48643 13.6571 9.43629 13.6237C9.23012 13.4955 9.0351 13.2113 8.85679 13.1166C8.73978 13.0553 8.64505 12.994 8.51133 12.9327C8.45003 12.8937 8.39989 12.8046 8.32188 12.7767C8.07671 12.6931 7.88168 12.5427 7.60865 12.4647C7.08488 12.3142 6.65026 12.6151 6.22121 12.838C6.19892 12.838 6.15435 12.8324 6.13206 12.8491C6.03176 12.9327 5.92032 12.9773 5.82003 13.0442C5.6863 13.15 5.50242 13.1779 5.35755 13.2615C5.31297 13.2893 5.3074 13.3729 5.26282 13.4008C5.19596 13.4398 5.0678 13.4509 5.00093 13.4899C4.93964 13.5289 4.93407 13.6014 4.87278 13.6515C4.75019 13.7518 4.63318 13.8298 4.46602 13.9078C4.37129 13.9635 3.58563 14.0973 3.4519 14.0973C3.25131 14.0973 3.10644 14.2644 2.80555 14.2644C2.34864 14.2644 1.88616 14.2533 1.50726 13.9691C1.42925 13.9023 1.41253 13.7072 1.35681 13.6738C1.18965 13.5679 1.20637 13.345 1.16179 13.1835C1.10607 13.15 0.994629 13.1389 1.0002 13.0442C1.06149 12.5761 1.29552 12.1526 1.57969 11.8295C1.64656 11.7069 1.79143 11.6567 1.80815 11.5007C1.80815 11.5007 2.06446 11.1441 2.22048 10.9992C2.25391 10.9379 2.20376 10.8376 2.2372 10.7819C2.47122 10.325 2.8947 10.013 3.24574 9.60063C3.34046 9.51148 3.40176 9.39446 3.5522 9.37218C3.61349 9.37775 3.66921 9.38332 3.70265 9.32203C3.76951 9.17158 3.8921 9.088 3.98125 9.02671C4.31557 8.79826 4.59417 8.45836 4.97307 8.39707C5.03437 8.36921 5.0678 8.30791 5.12352 8.28005C5.18481 8.22433 5.29625 8.2912 5.35755 8.26891C5.64172 8.14075 5.89803 7.86772 6.18778 7.82872C6.23236 7.80086 6.26579 7.73957 6.29365 7.74514C6.54996 7.76743 6.85643 7.53897 7.09602 7.77857C7.31333 7.73399 7.64209 7.77857 7.77582 7.89558ZM9.74832 10.6537C9.74832 10.6203 9.74832 10.5925 9.75389 10.559C9.64245 10.4922 9.5923 10.2971 9.44743 10.2581C9.41957 10.2581 9.35828 10.286 9.35828 10.3194C9.35271 10.5089 9.43071 10.637 9.50872 10.7986C9.54216 10.676 9.62574 10.6816 9.68146 10.7763C9.71489 10.7485 9.74275 10.6816 9.74832 10.6537Z" fill="black"/>
<path d="M37.2357 19.469L35.9375 20.8231L32.3268 17.3015C31.8531 18.1429 31.2848 18.8561 30.6273 19.4468C29.9698 20.0318 29.3123 20.511 28.6604 20.8788L27.3955 19.4356C28.1087 19.079 28.7161 18.6667 29.2176 18.193C29.7191 17.7194 30.1314 17.2179 30.4546 16.6997C30.7722 16.176 31.0062 15.6466 31.1566 15.1006C31.3015 14.5545 31.3795 14.0196 31.3795 13.5014V11.0107H33.3743V13.1448C33.3743 13.5627 33.3465 13.9583 33.2963 14.3372C33.2406 14.7161 33.1737 15.0838 33.0901 15.4404L37.2357 19.469ZM41.3646 25.5872H39.4757V16.0534H35.5474V14.2369H39.4813V9.39478H41.3702V25.5872H41.3646Z" fill="black"/>
<path d="M58.4377 18.5103H51.6955V19.4019H55.0388V23.5809H48.5808V24.3833H55.4678V26.1998H46.625V21.8591H53.0663V21.1459H46.5358V19.4019H49.7899V18.5103H43.187V16.7329H58.4377V18.5103ZM54.8772 12.7823C54.8772 13.2949 54.7657 13.7574 54.5484 14.1809C54.3311 14.6043 54.0358 14.9665 53.668 15.273C53.2891 15.5683 52.8378 15.8023 52.3252 15.9695C51.807 16.1366 51.2498 16.2202 50.6424 16.2202C50.0741 16.2202 49.5391 16.1422 49.0321 15.9862C48.525 15.8302 48.0793 15.6073 47.6892 15.312C47.3103 15.0167 47.0094 14.6545 46.7921 14.2366C46.5748 13.8131 46.4634 13.3395 46.4634 12.8046C46.4634 12.2696 46.5692 11.7849 46.781 11.3558C46.9927 10.9212 47.2936 10.5534 47.6725 10.2414C48.0403 9.93495 48.4805 9.69535 48.9875 9.52819C49.4946 9.36103 50.0462 9.27745 50.6424 9.27745C51.2219 9.27745 51.7735 9.36103 52.2862 9.52819C52.8044 9.69535 53.2501 9.92938 53.629 10.2414C54.0079 10.5367 54.3088 10.9045 54.5373 11.3335C54.7657 11.7626 54.8772 12.2474 54.8772 12.7823ZM52.9214 12.76C52.9214 12.2028 52.6985 11.7626 52.2472 11.445C51.7958 11.1218 51.2609 10.9658 50.648 10.9658C50.0072 10.9658 49.4723 11.1218 49.0377 11.4394C48.603 11.7514 48.3857 12.1972 48.3857 12.7656C48.3857 13.3116 48.603 13.7407 49.0377 14.0471C49.4723 14.3536 50.0072 14.5096 50.648 14.5096C51.2665 14.5096 51.7958 14.3703 52.2472 14.0861C52.6929 13.7964 52.9214 13.3562 52.9214 12.76Z" fill="black"/>
<path d="M74.4569 19.6749H59.2285V17.8807H74.4569V19.6749V19.6749ZM71.1471 26.1942H69.2415V22.4832H62.4269V20.6723H71.1471V26.1942ZM71.1137 16.9502H62.4993V9.94054H71.0023V11.7347H64.3827V12.4981H70.7905V14.3146H64.3827V15.1504H71.1081V16.9502H71.1137Z" fill="black"/>
<path d="M82.9995 17.669H75.7559V10.2693H77.6392V12.4034H81.0939V10.2693H82.9995V17.669V17.669ZM81.0939 15.8748V14.2032H77.6392V15.8748H81.0939ZM88.3543 26.1942H79.6173V21.731H85.9694V20.806H79.5281V19.0063H87.9252V23.475H81.6121V24.4H88.3543V26.1942V26.1942ZM88.4991 18.4881H86.6325V16.7607H83.5734V14.9777H86.6325V13.6961H83.5734V11.8963H86.6325V9.3889H88.4991V18.4881Z" fill="black"/>
<path d="M100.105 19.5245L98.8071 20.8785L95.2131 17.3402C94.7506 18.1927 94.1879 18.9171 93.5304 19.5022C92.8729 20.0872 92.2042 20.5664 91.53 20.9342L90.2651 19.491C90.9895 19.101 91.6024 18.6664 92.1095 18.1927C92.611 17.7191 93.0233 17.2232 93.3465 16.7161C93.6529 16.1924 93.8814 15.6686 94.0318 15.1337C94.1823 14.5988 94.2547 14.0694 94.2547 13.5512V11.0048H96.2495V13.1946C96.2495 13.6125 96.2217 14.0026 96.1715 14.3759C96.1158 14.7492 96.0489 15.1058 95.9653 15.4513L100.105 19.5245ZM104 25.5868H102.095V9.40004H104V25.5868Z" fill="black"/>
</svg>
