<svg viewBox="0 0 267 49" fill="none" xmlns="http://www.w3.org/2000/svg">
    <path d="M16.2998 7.3H11.7998V9.60001H16.2998V21.8H19.0998V0.399994H16.2998V7.3Z" fill="white"/>
    <path d="M9.2 5.8V2.10001H6.4V5.8C6.4 9.8 4.3 13.7 1.2 15.2L1 15.3L2.8 17.5L2.9 17.4C5.1 16.3 6.8 14.1 7.9 11.2C8.9 13.9 10.6 16 12.8 17L12.9 17.1L14.6 14.9L14.4 14.8C11.3 13.4 9.2 9.8 9.2 5.8Z" fill="white"/>
    <path d="M22 11.3H30.3V12.6H24.3V14.8H36.3V15.9H24.3V21.6H39.6V19.4H27.1V18H39V12.6H33.1V11.3H41.4V9H22V11.3Z" fill="white"/>
    <path d="M31.7 8.3C36.6 8.3 39.4 6.9 39.4 4.5C39.4 2.1 36.6 0.699997 31.7 0.699997C26.8 0.699997 24 2.1 24 4.5C24 6.9 26.8 8.3 31.7 8.3ZM26.9 4.5C26.9 3.4 28.6 2.89999 31.7 2.89999C34.8 2.89999 36.5 3.5 36.5 4.5C36.5 5.6 34.8 6.10001 31.7 6.10001C28.6 6.10001 26.9 5.5 26.9 4.5Z" fill="white"/>
    <path d="M51.0001 5.8V2.2H48.2001V5.8C48.2001 9.9 46.0001 13.7 42.8001 15.2L42.6001 15.3L44.2001 17.6L44.3001 17.5C46.7001 16.4 48.5001 14.1 49.6001 11.2C50.6001 13.9 52.5001 16 54.7001 17.1L54.8001 17.2L56.4001 15L56.2001 14.9C53.2001 13.4 51.0001 9.7 51.0001 5.8Z" fill="white"/>
    <path d="M60.5002 0.399994H57.7002V21.8H60.5002V0.399994Z" fill="white"/>
    <path d="M77.0998 11.4L76.7998 9.10001H76.5998C73.4998 9.60001 70.9998 9.7 67.5998 9.7V7.8H74.7998V1.5H64.7998V3.8H71.9998V5.60001H64.7998V12.1H66.7998C70.8998 12.1 73.6998 12 76.9998 11.5L77.0998 11.4Z" fill="white"/>
    <path d="M78.6002 15.2H70.0002V13H67.2002V21.5H81.3002V13H78.5002V15.2H78.6002ZM70.0002 19.2V17.4H78.6002V19.2H70.0002Z" fill="white"/>
    <path d="M81.3 0.5H78.5V12.5H81.3V0.5Z" fill="white"/>
    <path d="M85.6001 16.7H95.8001V2.5H85.6001V16.7ZM93.1001 4.7V14.3H88.3001V4.7H93.1001Z" fill="white"/>
    <path d="M102.1 0.399994H99.2998V21.8H102.1V0.399994Z" fill="white"/>
    <path d="M107.3 8.2C110.8 7.8 113.5 6.39999 115 4.39999C116.4 6.39999 119.2 7.8 122.7 8.2H122.8L123.8 6H123.5C119.5 5.6 116.4 3.59999 116.4 1.39999V0.600006H113.5V1.39999C113.5 3.59999 110.4 5.6 106.4 6H106.1L107.1 8.2H107.3Z" fill="white"/>
    <path d="M105.3 11.2H113.6V12.6H107.6V14.8H119.6V16H107.6V21.6H122.9V19.4H110.4V18.1H122.3V12.7H116.4V11.3H124.7V9H105.3V11.2Z" fill="white"/>
    <path d="M134.8 9.3V9.5L137.5 9.8V9.60001C138 6.90001 138 4.79999 138 3.39999V2H127.1V4.3H135.3C135.3 5.7 135.2 7.3 134.8 9.3Z" fill="white"/>
    <path d="M131.8 14.8H129V21.4H143.7V19.1H131.9V14.8H131.8Z" fill="white"/>
    <path d="M143 7.10001V0.5H140.2V16.6H143V9.5H145.8V7.10001H143Z" fill="white"/>
    <path d="M139.5 12.6L139.3 10.5H139.1C137 10.8 134.8 11 132.8 11V6.8H130V11.1C128.6 11.1 127.2 11.1 126 11.1H125.8L126.1 13.4H126.3C129.7 13.4 134.8 13.3 139.3 12.5L139.5 12.6Z" fill="white"/>
    <path d="M13.2999 47.3C11.2999 49 8.7999 49 7.9999 49C6.9999 49 3.9999 49 1.6999 46.6C1.3999 46.3 1.0999 45.9 0.899902 45.6L3.3999 43.9C4.0999 44.9 5.3999 46.3 8.3999 46.3C8.4999 46.3 9.0999 46.3 9.5999 46.2C9.8999 46.1 11.4999 45.7 11.4999 44.2C11.4999 44 11.4999 43.6 11.1999 43.2C10.6999 42.5 9.1999 42.3 8.3999 42.1L6.4999 41.7C5.6999 41.5 4.7999 41.3 4.0999 41C3.3999 40.6 1.7999 39.6 1.7999 37.3C1.7999 36.9 1.7999 35.9 2.3999 34.9C3.0999 33.7 4.8999 32.3 8.0999 32.3C9.4999 32.3 12.3999 32.5 14.5999 35.5L12.0999 37.3C11.5999 36.5 10.4999 34.9 7.8999 34.9C7.6999 34.9 5.6999 34.9 5.0999 36.1C4.9999 36.3 4.8999 36.6 4.8999 36.8C4.8999 37.1 4.9999 37.3 5.0999 37.5C5.4999 38.2 6.3999 38.4 7.8999 38.7L9.5999 39.1C11.0999 39.4 12.7999 39.9 13.8999 41.1C14.3999 41.6 14.7999 42.3 14.7999 43.8C14.7999 45.3 14.3999 46.4 13.2999 47.3Z" fill="#949494"/>
    <path d="M17.3999 48.6V32.6H28.7999V35.3H20.2999V39.1H28.0999V41.7H20.2999V46H29.2999V48.7H17.3999V48.6Z" fill="#949494"/>
    <path d="M42.4 37C41.6 35.6 40.3 34.9 38.7 34.9C37.7 34.9 37 35.2 36.7 35.4C35.6 36 34.2 37.5 34.2 40.5C34.2 41.1 34.2 44.1 36.5 45.5C37.5 46.1 38.5 46.2 38.9 46.2C39.2 46.2 39.9 46.2 40.7 45.8C41.9 45.3 43.4 43.9 43.5 40.9C43.3 39.6 43.1 38.2 42.4 37ZM44.1 46.7C43.7 47.1 42.8 48 41.4 48.5C40.9 48.7 40 49 38.6 49C36.3 49 34.6 48.3 33.1 46.5C31.6 44.8 31 42.8 31 40.6C31 40.1 31 38.8 31.5 37.5C32.5 34.3 35.3 32.2 38.7 32.2C41.8 32.2 43.6 33.9 44.4 34.7C45.2 35.7 46.4 37.5 46.4 40.6C46.3 41.6 46.2 44.4 44.1 46.7Z" fill="#949494"/>
    <path d="M61.8998 45.3C61.3998 46.9 59.4998 49 55.5998 49C53.6998 49 51.7998 48.5 50.4998 47.1C50.2998 46.9 49.7998 46.2 49.4998 45.4C49.2998 44.6 49.2998 43.8 49.2998 42.1V32.6H52.2998V42.5C52.2998 43.5 52.2998 43.8 52.4998 44.3C52.7998 45.3 53.6998 46.2 55.7998 46.2C56.1998 46.2 58.3998 46.2 59.0998 44.4C59.2998 43.9 59.2998 43.4 59.2998 42.4V32.7H62.2998V41.9C62.0998 43.6 62.1998 44.4 61.8998 45.3Z" fill="#949494"/>
    <path d="M65.7998 48.6V32.6H68.7998V45.9H75.1998V48.6H65.7998Z" fill="#949494"/>
    <path d="M96.1001 48.6L96.4001 35.4L92.9001 48.6H90.2001L86.7001 35.4L87.0001 48.6H84.1001V32.6H88.5001L91.6001 44.5L94.7001 32.6H99.0001V48.6H96.1001Z" fill="#949494"/>
    <path d="M115.3 45.3C114.8 46.9 112.9 49 109 49C107.1 49 105.2 48.5 103.9 47.1C103.7 46.9 103.2 46.2 102.9 45.4C102.7 44.6 102.7 43.8 102.7 42.1V32.6H105.7V42.5C105.7 43.5 105.7 43.8 105.9 44.3C106.2 45.3 107.1 46.2 109.2 46.2C109.6 46.2 111.8 46.2 112.5 44.4C112.7 43.9 112.7 43.4 112.7 42.4V32.7H115.7V41.9C115.6 43.6 115.6 44.4 115.3 45.3Z" fill="#949494"/>
    <path d="M130.2 47.3C128.3 48.9 125.7 49 124.9 49C123.9 49 120.9 49 118.6 46.6C118.3 46.3 118 45.9 117.8 45.6L120.3 43.9C121 44.9 122.3 46.3 125.3 46.3C125.4 46.3 126 46.3 126.5 46.2C126.8 46.1 128.4 45.7 128.4 44.2C128.4 44 128.4 43.6 128.1 43.2C127.6 42.5 126.1 42.3 125.3 42.1L123.4 41.7C122.6 41.5 121.7 41.3 121 41C120.3 40.6 118.7 39.6 118.7 37.3C118.7 36.9 118.7 35.9 119.3 34.9C120 33.7 121.8 32.3 125 32.3C126.4 32.3 129.3 32.5 131.5 35.5L129 37.3C128.5 36.5 127.4 34.9 124.8 34.9C124.6 34.9 122.6 34.9 122 36.1C121.9 36.3 121.8 36.6 121.8 36.8C121.8 37.1 121.9 37.3 122 37.5C122.4 38.2 123.3 38.4 124.8 38.7L126.5 39.1C128 39.4 129.7 39.9 130.8 41.1C131.3 41.6 131.7 42.3 131.7 43.8C131.8 45.3 131.3 46.4 130.2 47.3Z" fill="#949494"/>
    <path d="M134.3 48.6V32.6H145.7V35.3H137.2V39.1H145V41.7H137.2V46H146.2V48.7H134.3V48.6Z" fill="#949494"/>
    <path d="M161.3 45.3C160.8 46.9 158.9 49 155 49C153.1 49 151.2 48.5 149.9 47.1C149.7 46.9 149.2 46.2 148.9 45.4C148.7 44.6 148.7 43.8 148.7 42.1V32.6H151.7V42.5C151.7 43.5 151.7 43.8 151.9 44.3C152.2 45.3 153.1 46.2 155.2 46.2C155.6 46.2 157.8 46.2 158.5 44.4C158.7 43.9 158.7 43.4 158.7 42.4V32.7H161.7V41.9C161.5 43.6 161.6 44.4 161.3 45.3Z" fill="#949494"/>
    <path d="M177.1 48.6L177.4 35.4L173.9 48.6H171.2L167.7 35.4L168 48.6H165.1V32.6H169.5L172.6 44.5L175.7 32.6H180V48.6H177.1Z" fill="#949494"/>
    <path d="M200.9 37C200.1 35.6 198.8 34.9 197.2 34.9C196.2 34.9 195.5 35.2 195.2 35.4C194.1 36 192.7 37.5 192.7 40.5C192.7 41.1 192.7 44.1 195 45.5C196 46.1 197 46.2 197.4 46.2C197.7 46.2 198.4 46.2 199.2 45.8C200.4 45.3 201.9 43.9 202 40.9C201.9 39.6 201.6 38.2 200.9 37ZM202.6 46.7C202.2 47.1 201.3 48 199.9 48.5C199.4 48.7 198.5 49 197.1 49C194.8 49 193.1 48.3 191.6 46.5C190.1 44.8 189.5 42.8 189.5 40.6C189.5 40.1 189.5 38.8 190 37.5C191 34.3 193.8 32.2 197.2 32.2C200.3 32.2 202.1 33.9 202.9 34.7C203.7 35.7 204.9 37.5 204.9 40.6C204.9 41.6 204.7 44.4 202.6 46.7Z" fill="#949494"/>
    <path d="M210.7 35.2V39.2H217.4V41.8H210.7V48.6H207.7V32.6H218.3V35.3H210.7V35.2Z" fill="#949494"/>
    <path d="M232.5 35.4L230.3 42.8H234.7L232.5 35.4ZM236.5 48.6L235.6 45.5H229.6L228.7 48.6H225.5L230.9 32.6H234.3L239.8 48.6H236.5Z" fill="#949494"/>
    <path d="M249.6 35.6C249.1 35.3 248.5 35.1 247.2 35.1H244.8V40.1H245.9C247.7 40.1 248.7 40.1 249.5 39.7C250 39.5 250.7 38.9 250.7 37.6C250.6 37.2 250.5 36.3 249.6 35.6ZM250.6 48.6L247.4 42.7H244.7V48.6H241.7V32.6H248.3C249 32.6 251.2 32.7 252.6 34.6C253.5 35.8 253.6 37.2 253.6 37.7C253.6 37.9 253.6 38.7 253.3 39.5C253.1 40.2 252.3 41.5 250.4 42.1L254 48.6H250.6Z" fill="#949494"/>
    <path d="M262.5 35.3V48.6H259.5V35.3H255.1V32.6H266.9V35.3H262.5Z" fill="#949494"/>
</svg>