<?xml version="1.0" encoding="utf-8"?>
<!-- Generator: Adobe Illustrator 27.0.0, SVG Export Plug-In . SVG Version: 6.00 Build 0)  -->
<svg version="1.1" id="Layer_1" xmlns="http://www.w3.org/2000/svg" xmlns:xlink="http://www.w3.org/1999/xlink" x="0px" y="0px"
	 viewBox="0 0 267 49" style="enable-background:new 0 0 267 49;" xml:space="preserve">
<style type="text/css">
	.st0{fill:#FFFFFF;}
	.st1{fill:#949494;}
</style>
<path class="st0" d="M16.3,7.3h-4.5v2.3h4.5v12.2h2.8V0.4h-2.8V7.3z"/>
<path class="st0" d="M9.2,5.8V2.1H6.4v3.7c0,4-2.1,7.9-5.2,9.4L1,15.3l1.8,2.2l0.1-0.1c2.2-1.1,3.9-3.3,5-6.2c1,2.7,2.7,4.8,4.9,5.8
	l0.1,0.1l1.7-2.2l-0.2-0.1C11.3,13.4,9.2,9.8,9.2,5.8z"/>
<path class="st0" d="M22,11.3h8.3v1.3h-6v2.2h12v1.1h-12v5.7h15.3v-2.2H27.1V18H39v-5.4h-5.9v-1.3h8.3V9H22V11.3z"/>
<path class="st0" d="M31.7,8.3c4.9,0,7.7-1.4,7.7-3.8s-2.8-3.8-7.7-3.8S24,2.1,24,4.5S26.8,8.3,31.7,8.3z M26.9,4.5
	c0-1.1,1.7-1.6,4.8-1.6s4.8,0.6,4.8,1.6c0,1.1-1.7,1.6-4.8,1.6S26.9,5.5,26.9,4.5z"/>
<path class="st0" d="M51,5.8V2.2h-2.8v3.6c0,4.1-2.2,7.9-5.4,9.4l-0.2,0.1l1.6,2.3l0.1-0.1c2.4-1.1,4.2-3.4,5.3-6.3
	c1,2.7,2.9,4.8,5.1,5.9l0.1,0.1l1.6-2.2l-0.2-0.1C53.2,13.4,51,9.7,51,5.8z"/>
<path class="st0" d="M60.5,0.4h-2.8v21.4h2.8V0.4z"/>
<path class="st0" d="M77.1,11.4l-0.3-2.3h-0.2c-3.1,0.5-5.6,0.6-9,0.6V7.8h7.2V1.5h-10v2.3H72v1.8h-7.2v6.5h2
	c4.1,0,6.9-0.1,10.2-0.6L77.1,11.4z"/>
<path class="st0" d="M78.6,15.2H70V13h-2.8v8.5h14.1V13h-2.8L78.6,15.2L78.6,15.2z M70,19.2v-1.8h8.6v1.8H70z"/>
<path class="st0" d="M81.3,0.5h-2.8v12h2.8V0.5z"/>
<path class="st0" d="M85.6,16.7h10.2V2.5H85.6V16.7z M93.1,4.7v9.6h-4.8V4.7H93.1z"/>
<path class="st0" d="M102.1,0.4h-2.8v21.4h2.8V0.4z"/>
<path class="st0" d="M107.3,8.2c3.5-0.4,6.2-1.8,7.7-3.8c1.4,2,4.2,3.4,7.7,3.8h0.1l1-2.2h-0.3c-4-0.4-7.1-2.4-7.1-4.6V0.6h-2.9v0.8
	c0,2.2-3.1,4.2-7.1,4.6h-0.3l1,2.2H107.3z"/>
<path class="st0" d="M105.3,11.2h8.3v1.4h-6v2.2h12V16h-12v5.6h15.3v-2.2h-12.5v-1.3h11.9v-5.4h-5.9v-1.4h8.3V9h-19.4V11.2z"/>
<path class="st0" d="M134.8,9.3v0.2l2.7,0.3V9.6c0.5-2.7,0.5-4.8,0.5-6.2V2h-10.9v2.3h8.2C135.3,5.7,135.2,7.3,134.8,9.3z"/>
<path class="st0" d="M131.8,14.8H129v6.6h14.7v-2.3h-11.8L131.8,14.8L131.8,14.8z"/>
<path class="st0" d="M143,7.1V0.5h-2.8v16.1h2.8V9.5h2.8V7.1H143z"/>
<path class="st0" d="M139.5,12.6l-0.2-2.1h-0.2c-2.1,0.3-4.3,0.5-6.3,0.5V6.8H130v4.3c-1.4,0-2.8,0-4,0h-0.2l0.3,2.3h0.2
	c3.4,0,8.5-0.1,13-0.9L139.5,12.6z"/>
<path class="st1" d="M13.3,47.3C11.3,49,8.8,49,8,49c-1,0-4,0-6.3-2.4c-0.3-0.3-0.6-0.7-0.8-1l2.5-1.7c0.7,1,2,2.4,5,2.4
	c0.1,0,0.7,0,1.2-0.1c0.3-0.1,1.9-0.5,1.9-2c0-0.2,0-0.6-0.3-1c-0.5-0.7-2-0.9-2.8-1.1l-1.9-0.4c-0.8-0.2-1.7-0.4-2.4-0.7
	c-0.7-0.4-2.3-1.4-2.3-3.7c0-0.4,0-1.4,0.6-2.4c0.7-1.2,2.5-2.6,5.7-2.6c1.4,0,4.3,0.2,6.5,3.2l-2.5,1.8c-0.5-0.8-1.6-2.4-4.2-2.4
	c-0.2,0-2.2,0-2.8,1.2c-0.1,0.2-0.2,0.5-0.2,0.7c0,0.3,0.1,0.5,0.2,0.7c0.4,0.7,1.3,0.9,2.8,1.2l1.7,0.4c1.5,0.3,3.2,0.8,4.3,2
	c0.5,0.5,0.9,1.2,0.9,2.7S14.4,46.4,13.3,47.3z"/>
<path class="st1" d="M17.4,48.6v-16h11.4v2.7h-8.5v3.8h7.8v2.6h-7.8V46h9v2.7H17.4V48.6z"/>
<path class="st1" d="M42.4,37c-0.8-1.4-2.1-2.1-3.7-2.1c-1,0-1.7,0.3-2,0.5c-1.1,0.6-2.5,2.1-2.5,5.1c0,0.6,0,3.6,2.3,5
	c1,0.6,2,0.7,2.4,0.7c0.3,0,1,0,1.8-0.4c1.2-0.5,2.7-1.9,2.8-4.9C43.3,39.6,43.1,38.2,42.4,37z M44.1,46.7c-0.4,0.4-1.3,1.3-2.7,1.8
	C40.9,48.7,40,49,38.6,49c-2.3,0-4-0.7-5.5-2.5c-1.5-1.7-2.1-3.7-2.1-5.9c0-0.5,0-1.8,0.5-3.1c1-3.2,3.8-5.3,7.2-5.3
	c3.1,0,4.9,1.7,5.7,2.5c0.8,1,2,2.8,2,5.9C46.3,41.6,46.2,44.4,44.1,46.7z"/>
<path class="st1" d="M61.9,45.3c-0.5,1.6-2.4,3.7-6.3,3.7c-1.9,0-3.8-0.5-5.1-1.9c-0.2-0.2-0.7-0.9-1-1.7c-0.2-0.8-0.2-1.6-0.2-3.3
	v-9.5h3v9.9c0,1,0,1.3,0.2,1.8c0.3,1,1.2,1.9,3.3,1.9c0.4,0,2.6,0,3.3-1.8c0.2-0.5,0.2-1,0.2-2v-9.7h3v9.2
	C62.1,43.6,62.2,44.4,61.9,45.3z"/>
<path class="st1" d="M65.8,48.6v-16h3v13.3h6.4v2.7H65.8z"/>
<path class="st1" d="M96.1,48.6l0.3-13.2l-3.5,13.2h-2.7l-3.5-13.2L87,48.6h-2.9v-16h4.4l3.1,11.9l3.1-11.9H99v16H96.1z"/>
<path class="st1" d="M115.3,45.3c-0.5,1.6-2.4,3.7-6.3,3.7c-1.9,0-3.8-0.5-5.1-1.9c-0.2-0.2-0.7-0.9-1-1.7c-0.2-0.8-0.2-1.6-0.2-3.3
	v-9.5h3v9.9c0,1,0,1.3,0.2,1.8c0.3,1,1.2,1.9,3.3,1.9c0.4,0,2.6,0,3.3-1.8c0.2-0.5,0.2-1,0.2-2v-9.7h3v9.2
	C115.6,43.6,115.6,44.4,115.3,45.3z"/>
<path class="st1" d="M130.2,47.3c-1.9,1.6-4.5,1.7-5.3,1.7c-1,0-4,0-6.3-2.4c-0.3-0.3-0.6-0.7-0.8-1l2.5-1.7c0.7,1,2,2.4,5,2.4
	c0.1,0,0.7,0,1.2-0.1c0.3-0.1,1.9-0.5,1.9-2c0-0.2,0-0.6-0.3-1c-0.5-0.7-2-0.9-2.8-1.1l-1.9-0.4c-0.8-0.2-1.7-0.4-2.4-0.7
	c-0.7-0.4-2.3-1.4-2.3-3.7c0-0.4,0-1.4,0.6-2.4c0.7-1.2,2.5-2.6,5.7-2.6c1.4,0,4.3,0.2,6.5,3.2l-2.5,1.8c-0.5-0.8-1.6-2.4-4.2-2.4
	c-0.2,0-2.2,0-2.8,1.2c-0.1,0.2-0.2,0.5-0.2,0.7c0,0.3,0.1,0.5,0.2,0.7c0.4,0.7,1.3,0.9,2.8,1.2l1.7,0.4c1.5,0.3,3.2,0.8,4.3,2
	c0.5,0.5,0.9,1.2,0.9,2.7C131.8,45.3,131.3,46.4,130.2,47.3z"/>
<path class="st1" d="M134.3,48.6v-16h11.4v2.7h-8.5v3.8h7.8v2.6h-7.8V46h9v2.7h-11.9V48.6z"/>
<path class="st1" d="M161.3,45.3c-0.5,1.6-2.4,3.7-6.3,3.7c-1.9,0-3.8-0.5-5.1-1.9c-0.2-0.2-0.7-0.9-1-1.7c-0.2-0.8-0.2-1.6-0.2-3.3
	v-9.5h3v9.9c0,1,0,1.3,0.2,1.8c0.3,1,1.2,1.9,3.3,1.9c0.4,0,2.6,0,3.3-1.8c0.2-0.5,0.2-1,0.2-2v-9.7h3v9.2
	C161.5,43.6,161.6,44.4,161.3,45.3z"/>
<path class="st1" d="M177.1,48.6l0.3-13.2l-3.5,13.2h-2.7l-3.5-13.2l0.3,13.2h-2.9v-16h4.4l3.1,11.9l3.1-11.9h4.3v16H177.1z"/>
<path class="st1" d="M200.9,37c-0.8-1.4-2.1-2.1-3.7-2.1c-1,0-1.7,0.3-2,0.5c-1.1,0.6-2.5,2.1-2.5,5.1c0,0.6,0,3.6,2.3,5
	c1,0.6,2,0.7,2.4,0.7c0.3,0,1,0,1.8-0.4c1.2-0.5,2.7-1.9,2.8-4.9C201.9,39.6,201.6,38.2,200.9,37z M202.6,46.7
	c-0.4,0.4-1.3,1.3-2.7,1.8c-0.5,0.2-1.4,0.5-2.8,0.5c-2.3,0-4-0.7-5.5-2.5c-1.5-1.7-2.1-3.7-2.1-5.9c0-0.5,0-1.8,0.5-3.1
	c1-3.2,3.8-5.3,7.2-5.3c3.1,0,4.9,1.7,5.7,2.5c0.8,1,2,2.8,2,5.9C204.9,41.6,204.7,44.4,202.6,46.7z"/>
<path class="st1" d="M210.7,35.2v4h6.7v2.6h-6.7v6.8h-3v-16h10.6v2.7L210.7,35.2L210.7,35.2z"/>
<path class="st1" d="M232.5,35.4l-2.2,7.4h4.4L232.5,35.4z M236.5,48.6l-0.9-3.1h-6l-0.9,3.1h-3.2l5.4-16h3.4l5.5,16H236.5z"/>
<path class="st1" d="M249.6,35.6c-0.5-0.3-1.1-0.5-2.4-0.5h-2.4v5h1.1c1.8,0,2.8,0,3.6-0.4c0.5-0.2,1.2-0.8,1.2-2.1
	C250.6,37.2,250.5,36.3,249.6,35.6z M250.6,48.6l-3.2-5.9h-2.7v5.9h-3v-16h6.6c0.7,0,2.9,0.1,4.3,2c0.9,1.2,1,2.6,1,3.1
	c0,0.2,0,1-0.3,1.8c-0.2,0.7-1,2-2.9,2.6l3.6,6.5H250.6z"/>
<path class="st1" d="M262.5,35.3v13.3h-3V35.3h-4.4v-2.7h11.8v2.7H262.5z"/>
</svg>
